<mxfile host="app.diagrams.net" modified="2024-01-08T15:36:49.431Z" agent="Mozilla/5.0 (Windows NT 10.0; Win64; x64) AppleWebKit/537.36 (KHTML, like Gecko) Chrome/120.0.0.0 Safari/537.36" etag="YN4VGHI4K57fu1noK77q" version="22.1.16" type="github">
  <diagram name="Page-1" id="GepWp2OQag2vWHSTUL8Y">
    <mxGraphModel dx="1050" dy="565" grid="1" gridSize="10" guides="1" tooltips="1" connect="1" arrows="1" fold="1" page="1" pageScale="1" pageWidth="827" pageHeight="1169" math="0" shadow="0">
      <root>
        <mxCell id="0" />
        <mxCell id="1" parent="0" />
        <mxCell id="EAfPiM0kWaG014DD5afI-1" value="" style="shape=image;verticalLabelPosition=bottom;verticalAlign=top;imageAspect=0;aspect=fixed;image=data:image/svg+xml,PHN2ZyB4bWxucz0iaHR0cDovL3d3dy53My5vcmcvMjAwMC9zdmciIHZpZXdCb3g9IjAgMCA3MiA3MiI+PHBhdGggZmlsbD0iIzkyZDNmNSIgZD0ibTE3LjEzNDcgNTguODk4OXMtMi0xMy41IDEwLTEzLjVjMy4xOTE4IDIuMTI3OSA1LjkyNjQgMy41OTg0IDkgMy41OTIyaC0uMTI0N2MzLjA3MzYuMDA2MiA1LjQwODEtMi4xNjQzIDguNi00LjI5MjIgMTUuNTcwNSAwIDEwLjggMTQuMiAxMC44IDE0LjIiLz48cGF0aCBmaWxsPSIjNjFiMmU0IiBkPSJtNDkuMjk3IDU4Ljg2MXYtMTIuODc1bC00LjQ5MS0uNzg0djcuMjQ1aC0xNy44NzdsLjAwMi03LjI0NS00LjY2Ni43ODR2MTIuODc1eiIvPjxwYXRoIGZpbGw9IiNkMGNmY2UiIGQ9Im02Ny4wODcgNDMuNDIzLTYuOTUgMTYuMzQ5aC0yNC45OWw2Ljk1LTE2LjM0OXoiLz48cGF0aCBmaWxsPSIjOWI5YjlhIiBkPSJtNjcuMzAzIDQzLjQyMy02Ljk1IDE2LjM0OWgtLjIyLTguNzdsNi45NS0xNi4zNDloOC43N3oiLz48cGF0aCBmaWxsPSIjZjRhYTQxIiBkPSJtNDkuMTYzMSAzMy43ODgzYy0yLjExMzEgNS4yODQ3LTcuNDE5MiA4LjcwMjQtMTMuNjMxMSA4LjcwMjQtNS4zNTUxIDAtMTEuMzEtMy4zMDc1LTEzLjQyMzMtOC41OTIybC0uMDc0Mi0uMTgxM2MtLjY3LTEuNjU3Ni0uNTYyMi0zLjY4NjUtLjU2MjItNS41ODM1bDIuMTUzOC0xOC43NjM3IDYuMDA3NiA1Ljg0MjlhMTQuMzU0NSAxNC4zNTQ1IDAgMCAxIDUuNTg2LTEuMTIzOWguNjI0NmExNC4zNTQ1IDE0LjM1NDUgMCAwIDEgNS41ODYgMS4xMjM5bDYuNTk1MS02LjQyMjkgMi4xODYzIDE5LjYzNjRhMTQuMjY3MiAxNC4yNjcyIDAgMCAxIC0xLjA0IDUuMzY1NyIvPjxwYXRoIGZpbGw9IiNlMjcwMjIiIGQ9Im0zNS41MzIgNDIuNDkwN2M2LjIzMTIuMTk4NSAxMS45NTUzLTMuMzk4MSAxNC4wNjg0LTguNjgyOGwuMDY1MS0uMTMzOWMuNjctMS42NTc2LjU2MjYtMy45OTc2LjU2MjYtNS44OTQ2bC0yLjIwMjctMTguOTg5NCIvPjxwYXRoIGZpbGw9IiNiMzk5YzgiIGQ9Im0yMi42NTIgMTcuNy0uNDg3IDQuNzI4IDI3LjEzMi0xLjY0MS0uMjgzLTIuNDU0eiIvPjxwYXRoIGZpbGw9IiNiMzk5YzgiIGQ9Im01MC44OTcyIDE5LjZhMiAyIDAgMSAxIC0yLTIgMi4wMDA3IDIuMDAwNyAwIDAgMSAyIDIiLz48cGF0aCBmaWxsPSIjZmZmIiBkPSJtNDcuMDcyMyAyNC45NzQ4cy04LjE2NzggMy40MDc1LTcuNzgzNyAzLjg0YzcuODE1NCA3LjAxNTkgOC40Mjg2LTIuODYyNyA3Ljc4MzctMy44NHoiLz48cGF0aCBmaWxsPSIjZmZmIiBkPSJtMjQuNjI4MSAyNC45NzQ4czcuNTU2OSA0LjAxIDcuNzgzNyAzLjg0Yy03LjU0NDUgNy4zODM5LTguNTQ1NS0yLjIzNjktNy43ODM3LTMuODR6Ii8+PHBhdGggZmlsbD0iI2ZmZiIgZD0ibTUzLjcyMTYgNTEuNzM3NmEzLjQyIDMuNDIgMCAwIDEgLTIuODQ4OSAyYy0xLjEwMzUgMC0xLjYyLS44OTU1LTEuMTUxMS0yYTMuNDIxMiAzLjQyMTIgMCAwIDEgMi44NDktMmMxLjEwMzUgMCAxLjYxOTQuODk2NSAxLjE1MSAyIi8+PGcgc3Ryb2tlLWxpbmVqb2luPSJyb3VuZCIgc3Ryb2tlLWxpbmVjYXA9InJvdW5kIiBzdHJva2U9IiMwMDAiIGZpbGw9Im5vbmUiPjxwYXRoIHN0cm9rZS13aWR0aD0iMiIgZD0ibTM2Ljg3MjMgNDguMzk4NmE2Ljg0NzIgNi44NDcyIDAgMCAxIC0xLjA2NjUuMDgxMWguMTI1Yy0zLjA3MzYuMDA2My01LjgwODEtMS40NjQyLTktMy41OTIxLTEyIDAtMTAgMTMtMTAgMTMiLz48cGF0aCBzdHJva2Utd2lkdGg9IjIiIGQ9Im0zNS40NjcgNTIuMTMzaC04LjUzOGwuMDAyLTcuMjQ1Ii8+PHBhdGggc3Ryb2tlLXdpZHRoPSIyIiBkPSJtMjIuMjY0OSA0NS43NTY5djEyLjEwOTciLz48cGF0aCBzdHJva2Utd2lkdGg9IjIiIGQ9Im0zNS4xNDcgNTkuNzcyaDI0Ljk5bDYuOTUtMTYuMzQ5aC0yNC45OXoiLz48cGF0aCBzdHJva2Utd2lkdGg9IjIiIGQ9Im0yNC4xNzY3IDU5Ljc3MjVoMTAuOTciLz48cGF0aCBzdHJva2Utd2lkdGg9IjEuOCIgZD0ibTM4LjI5MzYgMzUuNTg5LTIuNDQzNC0zLjAxNDMiLz48cGF0aCBzdHJva2Utd2lkdGg9IjEuOCIgZD0ibTMzLjQwNjggMzUuNTg5IDIuNDQzNC0zLjAxNDMiLz48cGF0aCBzdHJva2Utd2lkdGg9IjEuOCIgZD0ibTMzLjQwNjggMzIuNTc0N2g0Ljg4NjgiLz48cGF0aCBzdHJva2Utd2lkdGg9IjIiIGQ9Im00OS43NjY3IDIzLjg2OS40Mzg3IDQuMTg0NGExMy42NjQgMTMuNjY0IDAgMCAxIC0xLjAxNzEgNS4xODkiLz48cGF0aCBzdHJva2Utd2lkdGg9IjIiIGQ9Im0yMi41MTIxIDMzLjI0MjNhMTMuNjYzNSAxMy42NjM1IDAgMCAxIC0xLjAxNzEtNS4xODg5bDIuMTM4LTE4Ljk5IDYuNDQ5MiA2LjIxMDlhMTQuMTc1IDE0LjE3NSAwIDAgMSA1LjQ2MjYtMS4wODY4aC42MTA4YTE0LjE4MjUgMTQuMTgyNSAwIDAgMSA1LjQ2MzIgMS4wODY4bDYuNDQ4NS02LjIxMDkuNjY1NSA2LjM5OSIvPjxwYXRoIHN0cm9rZS13aWR0aD0iMS44IiBkPSJtMjguMTExOSAzOS43MjE5YTE0LjEyMDcgMTQuMTIwNyAwIDAgMCA3LjQzMjkgMi4wOTY5aC42MTA4YTE0LjExOTEgMTQuMTE5MSAwIDAgMCA3LjQzMjktMi4wOTY5Ii8+PC9nPjxlbGxpcHNlIHJ5PSIxLjIwNTciIHJ4PSIxLjIyMTciIGN5PSIyNy43NTIiIGN4PSIyOC41MTk5Ii8+PGVsbGlwc2Ugcnk9IjEuMjA1NyIgcng9IjEuMjIxNyIgY3k9IjI3Ljc1MiIgY3g9IjQzLjE4MDUiLz48cGF0aCBzdHJva2Utd2lkdGg9IjEuNiIgc3Ryb2tlLWxpbmVqb2luPSJyb3VuZCIgc3Ryb2tlLWxpbmVjYXA9InJvdW5kIiBzdHJva2U9IiMwMDAiIGZpbGw9Im5vbmUiIGQ9Im00Ny4wNzIzIDI0Ljk0NzRzLTguMTY3OCAzLjQwNzUtNy43ODM3IDMuODRjNy44MTU0IDcuMDE1OSA4LjQyODYtMi44NjI3IDcuNzgzNy0zLjg0eiIvPjxwYXRoIHN0cm9rZS13aWR0aD0iMS42IiBzdHJva2UtbGluZWpvaW49InJvdW5kIiBzdHJva2UtbGluZWNhcD0icm91bmQiIHN0cm9rZT0iIzAwMCIgZmlsbD0ibm9uZSIgZD0ibTUwLjkyMTYgMzcuMTk0Ny01LjQ5NzctMy4wMTQzIi8+PHBhdGggc3Ryb2tlLXdpZHRoPSIxLjYiIHN0cm9rZS1saW5lam9pbj0icm91bmQiIHN0cm9rZS1saW5lY2FwPSJyb3VuZCIgc3Ryb2tlPSIjMDAwIiBmaWxsPSJub25lIiBkPSJtNDguNjc4MiAzOS44MDg5LTUuNDk3Ny0zLjAxNDIiLz48cGF0aCBzdHJva2Utd2lkdGg9IjEuNiIgc3Ryb2tlLWxpbmVqb2luPSJyb3VuZCIgc3Ryb2tlLWxpbmVjYXA9InJvdW5kIiBzdHJva2U9IiMwMDAiIGZpbGw9Im5vbmUiIGQ9Im0yNC42MjgxIDI0Ljk0NzRzNy41NTY5IDQuMDEgNy43ODM3IDMuODRjLTcuNTQ0NSA3LjM4MzgtOC41NDU1LTIuMjM2OS03Ljc4MzctMy44NHoiLz48cGF0aCBzdHJva2Utd2lkdGg9IjEuNiIgc3Ryb2tlLWxpbmVqb2luPSJyb3VuZCIgc3Ryb2tlLWxpbmVjYXA9InJvdW5kIiBzdHJva2U9IiMwMDAiIGZpbGw9Im5vbmUiIGQ9Im0yMC43Nzg4IDM3LjE5NDcgNS40OTc3LTMuMDE0MyIvPjxwYXRoIHN0cm9rZS13aWR0aD0iMS42IiBzdHJva2UtbGluZWpvaW49InJvdW5kIiBzdHJva2UtbGluZWNhcD0icm91bmQiIHN0cm9rZT0iIzAwMCIgZmlsbD0ibm9uZSIgZD0ibTIzLjAyMjIgMzkuODA4OSA1LjQ5NzctMy4wMTQyIi8+PHBhdGggc3Ryb2tlLXdpZHRoPSIxLjYiIHN0cm9rZS1saW5lam9pbj0icm91bmQiIHN0cm9rZS1saW5lY2FwPSJyb3VuZCIgc3Ryb2tlPSIjMDAwIiBmaWxsPSJub25lIiBkPSJtNDYuOTk4IDE4LjI4NC0yNC4zNDYtLjU4NC0uNDg3IDQuNzI4IDI0Ljg0LTEuNTAyIi8+PHBhdGggc3Ryb2tlLXdpZHRoPSIxLjYiIHN0cm9rZS1saW5lam9pbj0icm91bmQiIHN0cm9rZS1saW5lY2FwPSJyb3VuZCIgc3Ryb2tlPSIjMDAwIiBmaWxsPSJub25lIiBkPSJtNTAuNDk3MiAxOS42YTIgMiAwIDEgMSAtMi0yIDIuMDAwNyAyLjAwMDcgMCAwIDEgMiAyIi8+PC9zdmc+" vertex="1" parent="1">
          <mxGeometry x="150" y="300" width="100" height="100" as="geometry" />
        </mxCell>
        <mxCell id="EAfPiM0kWaG014DD5afI-2" value="&lt;b&gt;&lt;font style=&quot;font-size: 14px;&quot;&gt;Developer&lt;/font&gt;&lt;/b&gt;" style="text;html=1;strokeColor=none;fillColor=none;align=center;verticalAlign=middle;whiteSpace=wrap;rounded=0;" vertex="1" parent="1">
          <mxGeometry x="170" y="390" width="60" height="30" as="geometry" />
        </mxCell>
        <mxCell id="EAfPiM0kWaG014DD5afI-3" value="" style="shape=image;verticalLabelPosition=bottom;verticalAlign=top;imageAspect=0;aspect=fixed;image=data:image/svg+xml,PHN2ZyB4bWxucz0iaHR0cDovL3d3dy53My5vcmcvMjAwMC9zdmciIHZpZXdCb3g9IjAgMCA0NDggNTEyIj48cGF0aCBkPSJtNDAwIDMyaC0zNTJjLTI2LjUgMC00OCAyMS41LTQ4IDQ4djM1MmMwIDI2LjUgMjEuNSA0OCA0OCA0OGgzNTJjMjYuNSAwIDQ4LTIxLjUgNDgtNDh2LTM1MmMwLTI2LjUtMjEuNS00OC00OC00OHptLTEyMi43IDM4My43Yy04LjQgMS41LTExLjUtMy43LTExLjUtOCAwLTUuNC4yLTMzIC4yLTU1LjMgMC0xNS42LTUuMi0yNS41LTExLjMtMzAuNyAzNy00LjEgNzYtOS4yIDc2LTczLjEgMC0xOC4yLTYuNS0yNy4zLTE3LjEtMzkgMS43LTQuMyA3LjQtMjItMS43LTQ1LTEzLjktNC4zLTQ1LjcgMTcuOS00NS43IDE3LjktMTMuMi0zLjctMjcuNS01LjYtNDEuNi01LjZzLTI4LjQgMS45LTQxLjYgNS42YzAgMC0zMS44LTIyLjItNDUuNy0xNy45LTkuMSAyMi45LTMuNSA0MC42LTEuNyA0NS0xMC42IDExLjctMTUuNiAyMC44LTE1LjYgMzkgMCA2My42IDM3LjMgNjkgNzQuMyA3My4xLTQuOCA0LjMtOS4xIDExLjctMTAuNiAyMi4zLTkuNSA0LjMtMzMuOCAxMS43LTQ4LjMtMTMuOS05LjEtMTUuOC0yNS41LTE3LjEtMjUuNS0xNy4xLTE2LjItLjItMS4xIDEwLjItMS4xIDEwLjIgMTAuOCA1IDE4LjQgMjQuMiAxOC40IDI0LjIgOS43IDI5LjcgNTYuMSAxOS43IDU2LjEgMTkuNyAwIDEzLjkuMiAzNi41LjIgNDAuNiAwIDQuMy0zIDkuNS0xMS41IDgtNjYtMjIuMS0xMTIuMi04NC45LTExMi4yLTE1OC4zIDAtOTEuOCA3MC4yLTE2MS41IDE2Mi0xNjEuNXMxNjYuMiA2OS43IDE2Ni4yIDE2MS41Yy4xIDczLjQtNDQuNyAxMzYuMy0xMTAuNyAxNTguM3ptLTk4LjEtNjEuMWMtMS45LjQtMy43LS40LTMuOS0xLjctLjItMS41IDEuMS0yLjggMy0zLjIgMS45LS4yIDMuNy42IDMuOSAxLjkuMyAxLjMtMSAyLjYtMyAzem0tOS41LS45YzAgMS4zLTEuNSAyLjQtMy41IDIuNC0yLjIuMi0zLjctLjktMy43LTIuNCAwLTEuMyAxLjUtMi40IDMuNS0yLjQgMS45LS4yIDMuNy45IDMuNyAyLjR6bS0xMy43LTEuMWMtLjQgMS4zLTIuNCAxLjktNC4xIDEuMy0xLjktLjQtMy4yLTEuOS0yLjgtMy4yczIuNC0xLjkgNC4xLTEuNWMyIC42IDMuMyAyLjEgMi44IDMuNHptLTEyLjMtNS40Yy0uOSAxLjEtMi44LjktNC4zLS42LTEuNS0xLjMtMS45LTMuMi0uOS00LjEuOS0xLjEgMi44LS45IDQuMy42IDEuMyAxLjMgMS44IDMuMy45IDQuMXptLTkuMS05LjFjLS45LjYtMi42IDAtMy43LTEuNXMtMS4xLTMuMiAwLTMuOWMxLjEtLjkgMi44LS4yIDMuNyAxLjMgMS4xIDEuNSAxLjEgMy4zIDAgNC4xem0tNi41LTkuN2MtLjkuOS0yLjQuNC0zLjUtLjYtMS4xLTEuMy0xLjMtMi44LS40LTMuNS45LS45IDIuNC0uNCAzLjUuNiAxLjEgMS4zIDEuMyAyLjguNCAzLjV6bS02LjctNy40Yy0uNC45LTEuNyAxLjEtMi44LjQtMS4zLS42LTEuOS0xLjctMS41LTIuNi40LS42IDEuNS0uOSAyLjgtLjQgMS4zLjcgMS45IDEuOCAxLjUgMi42eiIvPjwvc3ZnPg==" vertex="1" parent="1">
          <mxGeometry x="340" y="309.64" width="70.32" height="80.36" as="geometry" />
        </mxCell>
        <mxCell id="EAfPiM0kWaG014DD5afI-5" value="&lt;b&gt;&lt;font style=&quot;font-size: 14px;&quot;&gt;GitHub&lt;/font&gt;&lt;/b&gt;" style="text;html=1;strokeColor=none;fillColor=none;align=center;verticalAlign=middle;whiteSpace=wrap;rounded=0;" vertex="1" parent="1">
          <mxGeometry x="345.15999999999997" y="390" width="60" height="30" as="geometry" />
        </mxCell>
      </root>
    </mxGraphModel>
  </diagram>
</mxfile>
